<?xml version="1.0" standalone="no"?>
<!DOCTYPE svg PUBLIC "-//W3C//DTD SVG 20010904//EN"
 "http://www.w3.org/TR/2001/REC-SVG-20010904/DTD/svg10.dtd">
<svg version="1.0" xmlns="http://www.w3.org/2000/svg"
 width="700.000000pt" height="700.000000pt" viewBox="0 0 700.000000 700.000000"
 preserveAspectRatio="xMidYMid meet">
<metadata>
Created by potrace 1.14, written by Peter Selinger 2001-2017
</metadata>
<g transform="translate(0.000000,700.000000) scale(0.100000,-0.100000)"
fill="#000000" stroke="none">
<path d="M5615 6273 c-162 -162 -295 -298 -295 -302 0 -5 12 -13 28 -20 26
-12 122 -73 150 -96 119 -95 264 -259 322 -361 18 -33 35 -61 37 -63 6 -8 593
584 593 600 0 28 -48 115 -109 196 -109 144 -286 292 -398 331 l-33 11 -295
-296z"/>
<path d="M2867 5844 c-1 -1 -58 -4 -127 -8 -69 -3 -134 -8 -145 -10 -11 -2
-49 -7 -85 -11 -36 -4 -74 -9 -85 -11 -11 -2 -36 -7 -55 -10 -19 -3 -82 -17
-140 -31 -58 -13 -115 -26 -127 -29 -12 -2 -75 -22 -140 -43 -392 -128 -765
-339 -1064 -602 -82 -72 -359 -345 -359 -353 0 -3 367 -372 817 -821 l816
-817 154 154 c84 84 153 153 153 154 0 1 -234 236 -520 522 -286 285 -524 532
-530 547 -19 50 -3 80 99 182 54 54 114 112 132 128 175 156 412 290 644 366
63 21 238 66 291 75 215 35 531 40 729 10 281 -42 532 -124 795 -257 114 -58
283 -159 300 -179 3 -3 34 -28 70 -55 140 -107 338 -320 448 -482 63 -92 164
-278 206 -378 21 -49 44 -103 51 -120 48 -110 120 -388 140 -536 3 -25 8 -57
10 -70 33 -203 16 -535 -40 -787 -3 -12 -7 -30 -9 -41 -14 -62 -84 -251 -125
-336 -99 -207 -191 -335 -381 -528 -120 -121 -139 -137 -168 -137 -18 0 -43 5
-55 12 -12 6 -298 287 -635 625 -337 337 -615 613 -617 613 -5 0 -305 -300
-305 -305 0 -10 1820 -1835 1830 -1835 17 0 372 374 451 475 273 350 458 722
564 1135 10 36 19 76 21 90 3 14 9 41 14 60 16 63 43 257 55 390 6 62 6 399 1
430 -3 14 -7 59 -11 100 -3 41 -17 138 -30 216 -96 545 -340 1052 -710 1472
-31 35 -176 180 -249 248 -50 47 -226 187 -304 243 -334 237 -749 413 -1147
487 -49 9 -99 18 -109 20 -86 16 -508 48 -519 38z"/>
<path d="M4976 5626 l-178 -181 27 -20 c150 -108 390 -328 496 -453 l44 -53
169 171 170 170 -13 38 c-34 95 -188 285 -311 383 -62 50 -139 96 -186 112
l-39 13 -179 -180z"/>
<path d="M3180 3829 c-1070 -1074 -1582 -1591 -1578 -1594 2 -2 28 -17 58 -36
176 -105 356 -287 450 -452 l33 -59 1275 1276 1276 1275 -34 48 c-58 82 -200
220 -315 307 -127 96 -220 156 -238 155 -6 -1 -424 -414 -927 -920z"/>
<path d="M1354 1872 c-53 -108 -166 -336 -250 -505 -85 -169 -154 -310 -154
-312 0 -3 53 22 118 54 64 32 291 145 505 250 273 135 387 197 387 208 0 25
-67 142 -114 198 -111 134 -261 257 -357 290 l-39 14 -96 -197z"/>
</g>
</svg>
