<svg xmlns="http://www.w3.org/2000/svg"
    xmlns:xlink="http://www.w3.org/1999/xlink" version="1.1" x="0px" y="0px" viewBox="0 0 68 68" style="enable-background:new 0 0 68 68;" xml:space="preserve">
    <g>
        <path d="M56.9,15.3l5.8-5.8c-0.4-1.8-3.5-4.9-5.3-5.3l-5.8,5.8C53.7,11,56,13.3,56.9,15.3z"/>
        <path d="M52.1,20.2l3.3-3.3c-0.4-1.8-3.5-4.9-5.3-5.3l-3.5,3.5c1.4,1,2.7,2.1,3.9,3.3C51.1,19,51.6,19.6,52.1,20.2z"/>
        <path d="M49.1,19.9c-1.4-1.4-3-2.7-4.6-3.8C32.9,8.4,17.2,10,7.3,19.9l-2.1,2.1l15.9,15.9l3-3l-10-10c-0.2-0.2-0.3-0.5-0.3-0.7   c0-0.3,0.1-0.5,0.3-0.7l1.3-1.3c6-6,16.2-7,24.8-2.5c2,1,3.7,2.3,5.2,3.8c0.8,0.8,1.6,1.7,2.3,2.7c5.4,7.6,6.6,19.9-0.9,27.3   l-1.3,1.3c-0.2,0.2-0.4,0.3-0.7,0.3c-0.3,0-0.5-0.1-0.7-0.3L32.2,42.9l-3,3L47,63.8l2.1-2.1C59.8,51,60.8,34,51.3,22.3   C50.6,21.4,49.9,20.6,49.1,19.9z"/>
        <path d="M14.1,47.9l-4.9,9.9l9.9-4.9C18.6,51.1,15.9,48.4,14.1,47.9z"/>
        <path d="M44,24.9c-1.2-1.2-2.6-2.2-4.1-3.1L26.2,35.5c0,0,0,0,0,0c0,0,0,0,0,0L15.5,46.3c2.1,1,4.3,3.2,5.3,5.3l24.8-24.8   C45.1,26.1,44.6,25.5,44,24.9z"/>
    </g>
</svg>
